<svg width="16" height="15" viewBox="0 0 16 15" fill="none" xmlns="http://www.w3.org/2000/svg">
<path fill-rule="evenodd" clip-rule="evenodd" d="M2.16667 6.80934C2.16667 4.12359 4.40917 1.93943 7.16667 1.93943C9.92417 1.93943 12.1667 4.12359 12.1667 6.80934C12.1667 9.49509 9.92417 11.6792 7.16667 11.6792C4.40917 11.6792 2.16667 9.49509 2.16667 6.80934ZM15.2558 13.5404L12.4267 10.784C13.3042 9.68502 13.8333 8.30765 13.8333 6.80934C13.8333 3.22915 10.8425 0.316132 7.16667 0.316132C3.49083 0.316132 0.5 3.22915 0.5 6.80934C0.5 10.3895 3.49083 13.3025 7.16667 13.3025C8.705 13.3025 10.1192 12.7871 11.2475 11.9325L14.0775 14.688C14.24 14.8463 14.4533 14.9258 14.6667 14.9258C14.88 14.9258 15.0933 14.8463 15.2558 14.688C15.5817 14.3707 15.5817 13.8577 15.2558 13.5404Z" fill="#8D8D8D"/>
</svg>
